<svg xmlns="http://www.w3.org/2000/svg" viewBox="0 0 500 500"><g id="freepik--Shadow--inject-2"><path d="M458.77,450.74c0,3.39-93.52,6.14-208.87,6.14S41,454.13,41,450.74s93.52-6.13,208.88-6.13S458.77,447.36,458.77,450.74Z" style="fill:#f5f5f5"></path></g><g id="freepik--Water--inject-2"><path d="M16.61,289.59v89c8.81-11.09,23.36-15.34,36.45-14,16.09,1.63,31.25,9.64,47,13.76,22.61,5.88,46.24,3.64,68.77-2.61,24.3-6.75,47.61-18.06,71.85-25.11s50.32-9.63,73.67,1c16.46,7.47,31.27,21.33,48.75,23.52,22.89,2.85,45.42-15.05,68-9.94,9.46,2.13,18,8.14,27,12.16s19.63,5.86,27.92-.08V289.59Z" style="fill:#407BFF"></path><path d="M16.61,289.59v89c8.81-11.09,23.36-15.34,36.45-14,16.09,1.63,31.25,9.64,47,13.76,22.61,5.88,46.24,3.64,68.77-2.61,24.3-6.75,47.61-18.06,71.85-25.11s50.32-9.63,73.67,1c16.46,7.47,31.27,21.33,48.75,23.52,22.89,2.85,45.42-15.05,68-9.94,9.46,2.13,18,8.14,27,12.16s19.63,5.86,27.92-.08V289.59Z" style="fill:#fff;opacity:0.7000000000000001"></path><ellipse cx="47.96" cy="384.7" rx="17.43" ry="8.1" style="fill:#407BFF"></ellipse><ellipse cx="47.96" cy="384.7" rx="17.43" ry="8.1" style="fill:#fff;opacity:0.7000000000000001"></ellipse><g style="opacity:0.4"><path d="M467.16,289.59l-198.34-.12c5.51,7.09,19.74,10.8,28.68,11.65l55.36,5.26a14.66,14.66,0,0,1,6.38,1.61c1.88,1.16,3.21,3.53,2.45,5.61s-3.45,3.08-5.77,3.52a67.35,67.35,0,0,1-21.67.64c-3.18-.43-7.58-.29-8.19,2.86-.64,3.3,3.79,5,7.13,5.28a224.5,224.5,0,0,0,85.68-9.48c2.4-.75,5.21-2,5.48-4.53.36-3.22-3.61-4.95-6.77-5.65l-26.52-5.83C412.56,291.05,447.44,302.28,467.16,289.59Z" style="fill:#fff"></path></g></g><g id="freepik--Island--inject-2"><path d="M418.36,275c-5.87.64-11.66,2.87-17.52,2.15-13-1.61-19.8-16.11-30.23-24.12-15.21-11.7-38-8.19-53.63,2.95s-19,17-28.67,33.58l164.72,0C448.42,275.41,433.16,273.43,418.36,275Z" style="fill:#263238"></path><path d="M421.65,227.21a17.3,17.3,0,0,0-5.37-10.09,5,5,0,0,1-3.17,2.53,10.14,10.14,0,0,0,1.48-4,21.49,21.49,0,0,0-6.53-3.47,65,65,0,0,0,19.16-2.79c-7.59-5.66-16.63-6.35-22.1-3.13,1.81-2.37,3.53-4.81,5.12-7.34a11.54,11.54,0,0,0-2-.57,6.83,6.83,0,0,1,2.58-.31c.61-.93,1.23-1.91,1.87-2.92-8.79,1.92-15.31,8.71-13.24,14.5-4.83-6.49-16.71-3.64-24.46,5l4.36-.24a8.61,8.61,0,0,1,1.92-2.64,17.16,17.16,0,0,0-.62,2.52q6-.27,12-1.12c-6.25,3.65-10.62,13-9.26,23.69a74.28,74.28,0,0,0,15.16-20.56,19.33,19.33,0,0,0,.53,10.26,8.67,8.67,0,0,0,1.35.1,7.45,7.45,0,0,1-1.14.54,18.79,18.79,0,0,0,2.11,4.11,10.81,10.81,0,0,0,2.17.56,8.1,8.1,0,0,1-1.43.43,14.58,14.58,0,0,0,3.71,3.29c2.1-4.14,1.95-8.72.81-12.83,10.68,26.11,6.75,64.73,6.75,64.73h8.32s2.74-39.07-11.92-64.24A18.24,18.24,0,0,0,421.65,227.21Zm-21-15.48Z" style="fill:#263238"></path><path d="M436.78,246.75c-7.7,13.22-6.26,33.74-6.26,33.74h4.37s-2.06-20.28,3.54-34a9.26,9.26,0,0,0,.43,6.73,7.65,7.65,0,0,0,1.95-1.73,3.81,3.81,0,0,1-.75-.22,5.63,5.63,0,0,0,1.14-.3,9.29,9.29,0,0,0,1.1-2.15,4.6,4.6,0,0,1-.59-.29,3.44,3.44,0,0,0,.71,0,10.17,10.17,0,0,0,.27-5.39,39,39,0,0,0,8,10.8c.72-5.62-1.57-10.53-4.86-12.44q3.13.43,6.3.59a9.8,9.8,0,0,0-.33-1.32,4.43,4.43,0,0,1,1,1.38l2.29.13c-4.07-4.54-10.31-6-12.84-2.63,1.08-3-2.34-6.61-7-7.61.34.52.67,1,1,1.53a3.49,3.49,0,0,1,1.36.16,6.7,6.7,0,0,0-1.06.3c.84,1.32,1.74,2.61,2.7,3.85-2.88-1.69-7.63-1.33-11.61,1.64A33.71,33.71,0,0,0,437.69,241a11.26,11.26,0,0,0-3.43,1.82,5.34,5.34,0,0,0,.78,2.11,2.65,2.65,0,0,1-1.67-1.33,9.12,9.12,0,0,0-2.82,5.3A9.58,9.58,0,0,0,436.78,246.75Zm4.82-6h0Z" style="fill:#263238"></path><path d="M329.36,231.8a9.18,9.18,0,0,0-2.82-5.3,2.65,2.65,0,0,1-1.67,1.33,5.3,5.3,0,0,0,.78-2.1,10.84,10.84,0,0,0-3.43-1.82,34.36,34.36,0,0,0,10.06-1.47c-4-3-8.73-3.34-11.61-1.64,1-1.25,1.86-2.53,2.7-3.86a6.7,6.7,0,0,0-1.06-.3,3.68,3.68,0,0,1,1.36-.16l1-1.53c-4.62,1-8,4.57-7,7.61-2.53-3.41-8.77-1.91-12.84,2.63l2.29-.13a4.43,4.43,0,0,1,1-1.38,9.8,9.8,0,0,0-.33,1.32q3.17-.13,6.3-.59c-3.29,1.92-5.58,6.83-4.86,12.44a39.05,39.05,0,0,0,8-10.79,10.18,10.18,0,0,0,.27,5.39,4.29,4.29,0,0,0,.71,0,3.58,3.58,0,0,1-.59.29,9.36,9.36,0,0,0,1.1,2.16,5.61,5.61,0,0,0,1.14.29,3.83,3.83,0,0,1-.75.23,7.64,7.64,0,0,0,1.95,1.72,9.31,9.31,0,0,0,.43-6.73c5.6,13.71,3.54,34,3.54,34h4.37s1.44-20.52-6.26-33.73A9.58,9.58,0,0,0,329.36,231.8Zm-11-8.13Z" style="fill:#263238"></path><path d="M345.27,203.14c-11.72,20.13-9.53,51.38-9.53,51.38h6.65s-3.14-30.89,5.4-51.77a14.07,14.07,0,0,0,.66,10.26,11.61,11.61,0,0,0,3-2.63,6.49,6.49,0,0,1-1.14-.34,8.28,8.28,0,0,0,1.74-.46,14.72,14.72,0,0,0,1.68-3.28,6.9,6.9,0,0,1-.91-.43,6.54,6.54,0,0,0,1.08-.08,15.43,15.43,0,0,0,.42-8.21A59.15,59.15,0,0,0,366.41,214c1.08-8.55-2.41-16-7.41-18.94q4.77.67,9.59.9a12.68,12.68,0,0,0-.5-2,6.79,6.79,0,0,1,1.54,2.11l3.49.19c-6.2-6.91-15.71-9.2-19.56-4,1.65-4.64-3.57-10.07-10.59-11.6.51.81,1,1.59,1.49,2.34a5.5,5.5,0,0,1,2.06.24,10.06,10.06,0,0,0-1.6.46c1.27,2,2.65,4,4.1,5.87-4.39-2.58-11.61-2-17.68,2.5a51.75,51.75,0,0,0,15.32,2.24,17,17,0,0,0-5.22,2.77,8,8,0,0,0,1.18,3.2,4,4,0,0,1-2.53-2,13.82,13.82,0,0,0-4.3,8.07A14.64,14.64,0,0,0,345.27,203.14Zm7.34-9.2h0Z" style="fill:#263238"></path></g><g id="freepik--Character--inject-2"><path d="M140.09,390.48s80.39-33.71,87.3-36.69c15.39-6.64,25.65-3.66,34.25,3S366.4,416.55,366.4,416.55a189.71,189.71,0,0,1,25.41,15.81c7.25,5.35,13.07,4.57,12.69,9.42-.41,5.19-6.78,6.44-14.45,5s-15.36-2.83-21.81-1.16-12.19.8-13.81-3.37-.92-12.44-.92-12.44-63.4-12.43-82.13-21.89c-11.21-5.67-25.45-16.43-25.45-16.43s-44.69,25.95-60.7,34.94c-15.75,8.84-35.34,22-46.85,23.91s-37.84,1.27-48.88-20.22q8.67-39,35.87-51.75Z" style="fill:#ebb373"></path><polygon points="222.85 404.83 143.43 394.79 140.69 390.23 147.57 387.48 153.22 392.46 226.76 402.41 222.85 404.83" style="opacity:0.30000000000000004"></polygon><path d="M271.38,407.9l97.5,10-1.75-.93L260.49,401.57A122.82,122.82,0,0,0,271.38,407.9Z" style="opacity:0.30000000000000004"></path><path d="M352.93,440.27s25.34-5.72,30.53-5.16,17.57,7.78,20.87,7.66L403.08,445s-17.93-5.72-21-5.75-27.11,4-27.11,4Z" style="opacity:0.30000000000000004"></path><path d="M130.29,396.93s129,11.45,136.81,11c13.4-.84,71.43,9.19,120,10.91,0,0,30.47-4.18,33.12-5,3.31-1,13.86-5.52,18.29-2.93,4.24,2.49-1.23,8.84-6.88,12.3s-12.75,8.13-15.44,10.9-2.17,6.88-8.6,8.59-19.82-7.14-24.18-7.55-43.41,8.79-60.41,8.89-38.52-4.63-55.13-4-109.71,15-140.6,11S130.29,396.93,130.29,396.93Z" style="fill:#ebb373"></path><g style="opacity:0.30000000000000004"><path d="M237.41,349.27c-9.92,1.77-11.4,5.85-24.4,10.61L208,362c3.5.57,19.21-1.31,20.64-.83,3.41,1.14,9.71,7.31,17.55,5.7,5.94-1.21,9.16-7,12.41-12.15C250.73,349.19,247.34,347.51,237.41,349.27Z"></path></g><path d="M136.34,297.19s10.22,4.82,13.56,10S170.85,348,170.85,348l32.74-5.28,15.8,2.11s-43.95,25.05-48.16,27c-3.44,1.61-11,1-15.45-6-3.19-5.1-14.82-33.73-14.82-33.73Z" style="fill:#ebb373"></path><path d="M110.12,286.72s-15.65,7.64-22.22,13.22c-4.63,3.94-4.16,6-6.54,15.13-4.74,18.3-.62,42.43-1.38,60.84-.25,6.13-3.58,16.52-4.57,24.33C73.08,418.59,85.2,433.76,99,441.71c-5.87-17.23-5.6-37.55,10.43-46.18,7.72-4.16,11.41-2.64,34-.74,0,0-12.22-20.91-12.27-22.07s2.77-11.7,2.77-11.7a27.07,27.07,0,0,0,14.28-19.85c2.17-14.36-11.87-44-11.87-44Z" style="fill:#407BFF"></path><path d="M97.88,293.13s13.45,4,19.93,15.52c5.44,9.62,15.65,21.24,23,15,3.48-3-4.25-20-7.19-27.46l-4.93-3.44-18.54-6Z" style="fill:#ebb373"></path><path d="M83.59,305.89s-8.82,29.48,1.56,35.22C94,346,102.3,332,102.3,332Z" style="fill:#ebb373"></path><path d="M101.15,334s-6.41-5.16-8-4.31-5.65,6.67-5.65,6.67l6.71-3.53s25.25,16.71,33.24,19.28,11.37,2.32,11.37,2.32Z" style="opacity:0.30000000000000004"></path><path d="M112.42,306.5s53.4,29.54,55.91,36.38l-4.56,0Z" style="opacity:0.30000000000000004"></path><path d="M153.43,361.22a28.72,28.72,0,0,0,6.11,1.75c2.38.23,28.43-.33,28.43-.33l-3.63,2s-26.4,2.15-29.5-.55Z" style="opacity:0.30000000000000004"></path><path d="M79.42,351.65s18.13,10.24,19,22.31c.56,7.61-21.87,19.73-21.87,19.73s2.82-11.79,3.35-17S79.42,351.65,79.42,351.65Z" style="fill:#ebb373"></path><path d="M198.72,343.43a16.73,16.73,0,0,1,2.34-4.55c1.36-1.59,3.49-3.85,4.55-2.35s.47,3.72-.22,4.91a7.87,7.87,0,0,0-.86,2.1Z" style="fill:#ebb373"></path><path d="M237.87,349.6c-.14-.48-5-38.81-5-38.81l23.59-1L253.84,349Z" style="fill:#407BFF"></path><rect x="238.05" y="349.28" width="15.91" height="9.21" transform="translate(-14 10.15) rotate(-2.3)" style="fill:#263238"></rect><path d="M91,328.17s53.7,31,66.25,34.37,78.65-4.3,78.65-4.3l-2-14.86-34.94-.79-35.13.33S119,310.62,107.2,303c-12.19-7.88-21.32-4.53-23.53,2.63C80.67,315.36,86,323.73,91,328.17Z" style="fill:#ebb373"></path><path d="M238.32,343.82s1.36,3.18,2.69,4,17-.79,17.37,1.49-3.12,5.05-3.12,5.05a3.64,3.64,0,0,1-1.38,4.27c-2.42,2-3.22,1.57-3.22,1.57s.31,3.07-1.17,4-3.69.78-9,.47-15.57-8.83-15.57-8.83l.1-11.63c.41-.26,8-6.39,11.51-5.69" style="fill:#ebb373"></path><g style="opacity:0.5"><path d="M226.5,346.83a5.24,5.24,0,0,1-1.14,9.48c-3.14,1-6.55-1.1-9.77-.45a27.78,27.78,0,0,0-4.22,1.7c-1.42.53-3.17.69-4.33-.29s-1.37-2.61-2.59-3.35c-1.07-.65-2.43-.32-3.69-.32a4.93,4.93,0,0,1-3.5-1.32,3.34,3.34,0,0,1-.81-3.53c.45-1.06,1.5-1.72,2.2-2.64s1.37-3,.37-3.51l16.69.49Z" style="fill:#fff"></path></g><g style="opacity:0.30000000000000004"><path d="M230.52,348.41s-1.32-3.39-2.88-4.8-3.87,2-3.87,2-1-4.24-4.52-2.13c0,0-2.27-4.14-6-2,0,0-1.55-1.66-3.28-1a48.12,48.12,0,0,0-4.95,2.45l-6.12-.26,9.53,3.19s2.17,6.9,5.39,6.6,2.42-3.85,2.42-3.85,1.12,3.47,2.94,3.24,1.65-3.24,1.65-3.24.08,3.34,2.39,2.78,1.84-3.36,1.84-3.36,2.21,2.08,3.69,2.09S230.52,348.41,230.52,348.41Z"></path></g><path d="M229.85,347.74a7.65,7.65,0,0,0-2-3.56c-1.56-1.42-4-.43-4-.43s-1-4.23-4.51-2.12c0,0-2.27-4.14-6-2,0,0-1.55-1.66-3.29-1a34.57,34.57,0,0,0-5.22,3.17l-.78,1.12,3.86-.06s2.78,8.06,6,7.75,2.43-3.85,2.43-3.85,1.12,3.47,2.94,3.24,1.64-3.23,1.64-3.23.09,3.33,2.4,2.77,1.84-3.36,1.84-3.36,2.21,2.08,3.69,2.09S229.85,347.74,229.85,347.74Z" style="fill:#ebb373"></path><polygon points="232.92 310.79 233.35 314.19 256.27 313.27 256.51 309.84 232.92 310.79" style="opacity:0.30000000000000004"></polygon><path d="M249.89,328.85a4.43,4.43,0,1,1-4.6-4.25A4.41,4.41,0,0,1,249.89,328.85Z" style="fill:#fff"></path><path d="M162.09,208.56c-5.68-1.8-10.5-2.13-15.86.59-7.75,3.94-10.34,8.49-14.67,11.09a236.06,236.06,0,0,1-36.87,17.21c-5.36,2-9.53,1.31-15.93,3.58-5.36,1.9-8.94,5.2-12.07,9.81s-4.28,10.68-2,15.63,7.58,8,13,9.63A41.9,41.9,0,0,0,116,268.2l32.38-8.84c17.62-4.87,25.31-18.35,27-27.83S171.54,211.57,162.09,208.56Z" style="fill:#407BFF"></path><path d="M134,222.39s10.62-8.8,15.75-10c3.93-.92,9.39-1.29,14.59,2.65,5.46,4.14,7.92,10.6,7.29,15.86-.66,5.45-1.57,10.26-8.23,17.13s-10.68,7.47-10.68,7.47Z" style="opacity:0.30000000000000004"></path><path d="M148.69,235.7c.72,4.52,1.45,9.1,3.3,13.3s5,8,9.21,9.73c6.07,2.44,13.8.43,18.82,4.62,3,2.51,4.14,6.72,3.8,10.61a11.73,11.73,0,0,1-.36,1.93,18.08,18.08,0,0,1-10.31,11.76l-3.86,1.69s5.08,4.09,3.09,5.21c-5,2.82-13,4.68-18.68,3.82-10.71-1.64-21.35-4.76-30.49-10.58s-16.69-14.56-19.71-25" style="fill:#263238"></path><path d="M96.14,240.54s-13.68,2.18-18.38,4.53a21.53,21.53,0,0,0-10,11.28c-1.35,3.41-1.56,12.63,9.78,17.16s26.33-1.06,26.33-1.06Z" style="opacity:0.30000000000000004"></path><path d="M145.29,260.87c5.1-8.69,10.26-32.18-10.72-39.56-26.19-9.22-38,7.45-40.41,24s9.6,37.83,27,36.68S141.77,266.89,145.29,260.87Z" style="fill:#263238"></path><path d="M103.45,293.86s6,4.22,13.7,10.36a27.66,27.66,0,0,0,5.22,3.26c5,2.4,9.52,3.71,10.63,1.3a8,8,0,0,0,.56-1.69c.87-4,.22-9.53-3.07-11.94-3.72-2.73-5.55-5.11-5.06-9a29.47,29.47,0,0,1,1.8-6.76l-3-3.2-15.42-14.36C109.62,271.79,111,288.12,103.45,293.86Z" style="fill:#ebb373"></path><path d="M125.35,287c-4.18-2.25-8.82-6.27-8.47-11.08a22.35,22.35,0,0,1,1-5.21l8.72,10.63A27.52,27.52,0,0,0,125.35,287Z" style="opacity:0.2"></path><path d="M104,246c2,15.17,2.53,21.61,10.71,29.28C127,286.76,145,282,147.56,266.78c2.27-13.7-1.39-36.2-16.59-42C116,219.07,102,230.78,104,246Z" style="fill:#ebb373"></path><path d="M123.32,250.7c.15,1.53,1.14,2.75,2.22,2.73s1.83-1.28,1.68-2.81-1.14-2.75-2.21-2.73S123.17,249.17,123.32,250.7Z" style="fill:#263238"></path><path d="M139.13,249.79c.15,1.46,1.12,2.62,2.18,2.6s1.8-1.22,1.66-2.68-1.12-2.62-2.18-2.6S139,248.33,139.13,249.79Z" style="fill:#263238"></path><path d="M120.94,245.16a.76.76,0,0,0,.6-.14,6.3,6.3,0,0,1,5.5-1.11.74.74,0,0,0,1-.45.83.83,0,0,0-.57-1,7.88,7.88,0,0,0-7,1.32.72.72,0,0,0,0,1.06A.88.88,0,0,0,120.94,245.16Z" style="fill:#263238"></path><path d="M144.22,242.18a.68.68,0,0,0,.35-.41.74.74,0,0,0-.53-.91,7.8,7.8,0,0,0-6.9,1,.68.68,0,0,0-.07,1,.81.81,0,0,0,1.08.1,6.29,6.29,0,0,1,5.47-.7A.81.81,0,0,0,144.22,242.18Z" style="fill:#263238"></path><path d="M116.19,231.9c5,4.9,3.41,24.2-10.09,27.26C90.29,256.1,101.12,217.3,116.19,231.9Z" style="fill:#263238"></path><path d="M135.69,264.17a42.84,42.84,0,0,0-2.5,5.71c-.36-.06-.73-.12-1.08-.2-4.9-.94-6.86-3-7.54-5a6.32,6.32,0,0,1-.22-3,6.41,6.41,0,0,1,.46-1.68c2.3,2.05,6.79,3.27,9.22,3.83C135,264.06,135.69,264.17,135.69,264.17Z" style="fill:#263238"></path><path d="M134,263.82l-.78,1.67c-4.61-.9-7.73-2.15-8.9-3.82a6.41,6.41,0,0,1,.46-1.68C127.11,262,131.6,263.26,134,263.82Z" style="fill:#fff"></path><path d="M132.11,269.68c-4.9-.94-6.86-3-7.54-5a15.92,15.92,0,0,1,5.22,2.12A6.06,6.06,0,0,1,132.11,269.68Z" style="fill:#dc5753"></path><path d="M134.83,248.89s3.14,6.74,6.27,10c-1.88,2-5.39,1.11-5.39,1.11Z" style="fill:#e4873e"></path><path d="M128,247.05l-3.46,1C126.21,249.73,128,247.05,128,247.05Z" style="fill:#263238"></path><path d="M143.62,246.27l-3.46,1C141.82,249,143.62,246.27,143.62,246.27Z" style="fill:#263238"></path><path d="M130.73,221.52c6.1,1.8,12.9,11.95,14.12,15.91-8.49,1.74-31.86-5.34-31.86-5.34s-15.2,4.86-7.73-3.25S130.73,221.52,130.73,221.52Z" style="fill:#263238"></path><path d="M99.9,258.54a12.28,12.28,0,0,0,7.63,5.46c4.07.85,5.89-5.71,4.36-9.7a8.11,8.11,0,0,0-9.33-4.88C98.72,250.36,97.7,255.05,99.9,258.54Z" style="fill:#ebb373"></path><path d="M108.74,263.55a2.84,2.84,0,1,1-2.95-2.72A2.84,2.84,0,0,1,108.74,263.55Z" style="fill:#407BFF"></path><path d="M109,258.38a.25.25,0,0,1-.25-.24,4.38,4.38,0,0,0-5.72-3.83.24.24,0,0,1-.31-.16.26.26,0,0,1,.16-.32,4.88,4.88,0,0,1,6.37,4.28.25.25,0,0,1-.23.27Z" style="opacity:0.1"></path><path d="M118.94,216.88c-5.5-.19-11.22,1-15.63,4.26-5.49,4.12-8.23,11-9.74,17.66L81,242.91a143.8,143.8,0,0,0,54.1-23C129.81,218.49,124.44,217.07,118.94,216.88Z" style="fill:#407BFF"></path><path d="M93.83,237.69s19.34-7,23.9-10.28l-22.91,6.8Z" style="opacity:0.30000000000000004"></path></g></svg>
